PathFileType	4	(X/Y/Z)	Patient4_TMGait_0pt5_01_left_41.trc.trc
DataRate	CameraRate	NumFrames	NumMarkers	Units	OrigDataRate	OrigDataStartFrame	OrigNumFrames
75.675675675676	75.675675675676	5	33	mm	75.675675675676	18	       141
Frame#	Time	L.ASIS			Sacral			L.Shoulder			Chest			R.Shoulder			Neck			R.ASIS			R.Thigh.Superior			R.Thigh.Lateral			R.Thigh.Inferior			R.Patella			L.Thigh.Superior			L.Thigh.Lateral			L.Thigh.Inferior			L.Patella			L.Shank.Superior			L.Shank.Lateral			L.Shank.Inferior			R.Shank.Superior			R.Shank.Lateral			R.Shank.Inferior			R.Heel			R.Midfoot.Superior			R.Midfoot.Lateral			R.Toe			L.Heel			L.Midfoot.Lateral			L.Midfoot.Superior			L.Toe			L.Elbow			L.Wrist			R.Elbow			R.Wrist			
		X1	Y1	Z1	X2	Y2	Z2	X3	Y3	Z3	X4	Y4	Z4	X5	Y5	Z5	X6	Y6	Z6	X7	Y7	Z7	X8	Y8	Z8	X9	Y9	Z9	X10	Y10	Z10	X11	Y11	Z11	X12	Y12	Z12	X13	Y13	Z13	X14	Y14	Z14	X15	Y15	Z15	X16	Y16	Z16	X17	Y17	Z17	X18	Y18	Z18	X19	Y19	Z19	X20	Y20	Z20	X21	Y21	Z21	X22	Y22	Z22	X23	Y23	Z23	X24	Y24	Z24	X25	Y25	Z25	X26	Y26	Z26	X27	Y27	Z27	X28	Y28	Z28	X29	Y29	Z29	X30	Y30	Z30	X31	Y31	Z31	X32	Y32	Z32	X33	Y33	Z33	

18	54.854642857143	774.526792780263	961.010320207507	335.559316613896	585.086118860536	1002.546088278307	523.143088753103	718.042172194556	1439.986961569842	339.087171225191	848.331652816966	1365.623121359304	476.315831070720	793.623381214860	1427.055295092295	665.975154692199	735.942737561700	1493.472169252417	493.154572785042	822.280709493540	937.580290463142	607.342778300257	825.161559762912	727.732591653818	578.912622281123	730.453025113758	630.710167686919	647.498779977349	787.388152955349	568.926489451871	563.204648522767	771.971995608293	484.139024365581	569.228072927092	854.702376040645	776.833212713428	360.220567365628	804.407091489247	646.603269373285	288.046224485312	910.634604726731	588.967300386501	344.738219267842	939.558748069623	524.434555912682	341.542829995164	925.361750011305	452.808526506205	333.188993864459	861.522884424213	321.555773184579	283.373252338949	951.334513537874	224.789003527533	337.684738602568	736.936647866636	396.939993310144	576.959233706750	657.839605748580	298.560515912437	638.248530663235	691.628932552926	201.954893870398	573.350884529668	546.217031002057	42.301456419105	536.688134334630	716.168107341402	96.391005684489	579.785351227512	626.142266914300	35.982046392719	615.540204189563	834.336489741775	43.910340500659	613.561492965743	873.282143497405	40.166449627883	377.295151107526	946.144996977605	48.940896035315	296.569367413392	1012.611081909185	130.495715439158	315.898726489107	1146.964286258966	109.297658547785	289.150663582720	590.658564742618	1106.143662850846	245.906001808302	572.120783039794	845.894369248714	261.184313748885	960.488505009405	1130.613409520600	759.678820816291	1188.348323821147	1212.113514004774	684.785010554977	
19	54.867857142857	774.616790844595	959.814383027787	333.868945257928	585.294673929730	1001.689727136346	521.742175573413	716.880294040368	1438.604299300477	336.431372153694	847.725121088926	1364.936565275588	473.465532878946	793.412123427566	1426.852096136377	663.102077769501	735.472081518364	1492.525804944731	490.171967617663	822.494481308759	936.792774045417	605.891399068560	823.828845385670	726.503121655348	577.725626333476	728.406005286924	630.131728884531	646.553122587789	784.741876890692	567.850677549585	562.289821466190	768.564103316963	483.141956843453	568.196218351497	855.751805870151	776.312071700020	359.175839140229	804.863743874863	645.369242751731	287.887080308885	911.289738784432	588.161732528211	344.195265491397	939.776559330925	523.244552439257	341.689525086573	925.133922973878	451.084465329897	333.556325445096	860.187262777764	320.425340509247	283.882937858306	948.796267954469	222.913602914173	338.572403226360	732.894357596240	396.109613047925	576.194957639998	653.169050456480	298.403413128631	637.805055588937	685.966402952546	201.447492747049	572.933285511107	539.544426492693	42.218931310891	536.733182738658	709.519766314515	96.312532465998	579.746014174227	619.443863131197	35.910121705326	615.559470002431	827.602076246320	43.876938757115	613.544980344325	868.393178826084	40.251539705614	378.283711158218	941.493584557613	47.495363870965	297.690153964170	1009.606617284775	127.339977965926	317.186897116814	1143.406050773557	103.174086437223	290.688940675727	590.311449018600	1104.353770929944	243.464301701968	574.897897457503	843.835539058721	257.693678237685	962.005457362007	1132.040945421495	757.359753538591	1186.702682276286	1219.341151581700	680.868555978530	
20	54.881071428571	775.167550264658	958.494112206622	332.188045133848	585.737512794184	1000.726125039994	520.017063678369	715.930271006502	1437.056195137716	333.519892578831	847.217263383817	1364.208339941533	470.527541078847	793.060495014373	1426.625267333113	660.076410291672	735.027588673549	1491.482458963907	486.919274622715	822.883094060044	935.925843240722	604.467609531661	822.712535150636	725.177939403613	576.579101430930	726.462733729331	629.489679548969	645.512744886056	782.285745976786	566.675727183142	561.337379745134	765.298562039924	482.040573820490	567.090336912001	857.078814201853	775.441699593699	358.222030404902	805.436769798226	643.980046295246	287.691228024714	911.913343113936	587.055343422854	343.791522046003	939.723898208650	521.536174710218	341.914065943606	924.433626331809	448.798850140599	333.925842807049	857.882535708920	318.953225934766	284.420825662040	944.938573417644	220.395199281957	339.534596956970	728.979502660331	395.204152209956	575.366607127330	648.571038386573	298.223565302422	637.288437604364	680.347626884716	200.895541412242	572.479913826469	532.882236688436	42.109415017629	536.773654500352	702.877260542331	96.214021089907	579.689943811663	612.752523604707	35.817325631885	615.572424548451	820.879400732222	43.801513668509	613.538708683955	861.484378622207	40.113240656448	379.303849668784	934.799712621216	45.656559706432	298.797541266229	1004.883586055879	123.411627755341	318.608109136071	1138.017040860814	95.733017000336	292.235177175539	590.428050935545	1102.277663402005	240.759587605393	578.587156093206	841.493108493068	253.884556201584	963.187567671345	1133.240090218896	755.012367867949	1185.028557797910	1225.344706696077	676.996947521325	
21	54.894285714286	776.153634859104	957.081442974138	330.515820425404	586.391546782139	999.680436027113	517.967472294528	715.241747732085	1435.368379885689	330.352872122648	846.832019259346	1363.445689050202	467.515842485225	792.577199214247	1426.383122791059	656.905236896237	734.640857586245	1490.366310518262	483.400184035099	823.424878427823	934.988438098803	603.044417998320	821.839046755011	723.769477746673	575.433866943379	724.683363774635	628.774467585351	644.340066499067	780.073543220173	565.402869929119	560.295105318663	762.245013083832	480.816685389977	565.867781201564	858.592240512396	774.213941813846	357.355954679826	806.039455391480	642.466994367303	287.444966373236	912.439736141585	585.665120834486	343.506014868559	939.337732716747	519.366423459986	342.207597309709	923.272624087839	446.067748437317	334.271656662999	854.790624785163	317.182484229396	284.954189088728	940.063640385603	217.399408715974	340.539614655917	725.238816432966	394.216047918252	574.437918069136	644.088046673749	298.030810657753	636.675086976730	674.793893640245	200.304000044594	571.974217245390	526.234911672029	41.991857037907	536.805107853704	696.242139203246	96.099468665302	579.606562526803	606.074383388641	35.713535497034	615.572032549224	814.178393266548	43.673099947178	613.548070963771	853.096151066196	39.798975198233	380.320561681541	926.593655140850	43.590345152336	299.856046687548	998.823482521274	118.992745455924	320.133417306823	1131.218886337137	87.492741612519	293.768829313905	591.047023255460	1099.945222408449	237.807356530071	583.133049167100	838.918426370862	249.791682369066	964.019208173813	1134.190212601826	752.638682888194	1183.386152066434	1230.117605764054	673.177733778762	
22	54.907500000000	777.519751411970	955.632203431401	328.844114129228	587.216158103598	998.594393510568	515.608770804604	714.857268954474	1433.585351727855	326.940236562526	846.592693902317	1362.666819294562	464.444005213407	791.988344926970	1426.150857233981	653.596605285892	734.350206479879	1489.218348071421	479.625856229137	824.080708603379	934.004186150657	601.586600861149	821.223196746364	722.307508446811	574.241093007772	723.128104546509	627.986212842782	642.997414963105	778.165622368980	564.046412518512	559.113609589017	759.485512562329	479.457617681166	564.491809464578	860.207528921674	772.673167320928	356.551240917217	806.603875048090	640.891288167079	287.128489830391	912.830484515888	584.050166823305	343.296899198488	938.606451164151	516.850327574623	342.539917732652	921.710672289722	443.056372847082	334.560226709581	851.146655575327	315.206913834597	285.434633324312	934.513440317998	214.136830887528	341.542221706893	721.726397546554	393.147312272019	573.376543379287	639.764356792465	297.847558032525	635.941765857126	669.331448397197	199.689882832551	571.402634137085	519.608350161824	41.902195504249	536.823249039243	689.623816409237	95.980559167517	579.490773895110	599.417545787133	35.618653725975	615.549256067377	807.510375354124	43.479375314416	613.577635941805	843.806809311004	39.375571728813	381.293786246097	917.444291848574	41.483416342816	300.825446405422	991.841298015349	114.411068772210	321.709423854547	1123.473073147136	79.036641914982	295.245415965140	592.217213280982	1097.400036204058	234.623849397593	588.485912710889	836.174028696970	245.444057782755	964.476990860415	1134.877825192729	750.239590782938	1181.817589291037	1233.651764497588	669.420160950435	
